# xmcd CD database file
#
# Track frame offsets:
#	150
#	41123
#	86134
#	105336
#	145910
#	174308
#	197477
#
# Disc length: 2994 seconds
#
# Revision: 0
# Processed by: cddbd v1.5.2PL0 Copyright (c) Steve Scherf et al.
# Submitted via: CDex 1.70beta2
#
DISCID=560bb007
DTITLE=Jonas Sjøvaag, Karl Seglem, Sigurd Hole - West Wind Drift
DYEAR=2017
DGENRE=Jazz
TTITLE0=Wisconsin
TTITLE1=Wichita
TTITLE2=Wayfarer
TTITLE3=Widdershins
TTITLE4=Walkover
TTITLE5=Willow
TTITLE6=Warren
EXTD=YEAR: 2017
EXTT0=
EXTT1=
EXTT2=
EXTT3=
EXTT4=
EXTT5=
EXTT6=
PLAYORDER=
